<mxfile host="app.diagrams.net" modified="2023-10-20T12:09:06.348Z" agent="Mozilla/5.0 (Windows NT 10.0; Win64; x64; rv:109.0) Gecko/20100101 Firefox/118.0" etag="K18kRewCUzHHxsYG1gA_" version="22.0.5" type="github">
  <diagram id="C5RBs43oDa-KdzZeNtuy" name="Page-1">
    <mxGraphModel dx="1434" dy="681" grid="1" gridSize="10" guides="1" tooltips="1" connect="1" arrows="1" fold="1" page="1" pageScale="1" pageWidth="827" pageHeight="1169" background="#000000" math="0" shadow="0">
      <root>
        <mxCell id="WIyWlLk6GJQsqaUBKTNV-0" />
        <mxCell id="WIyWlLk6GJQsqaUBKTNV-1" parent="WIyWlLk6GJQsqaUBKTNV-0" />
        <mxCell id="-IWh4WuzgYLWiWa0NZZR-0" value="LED0 An&lt;br&gt;LED9 Aus" style="ellipse;whiteSpace=wrap;html=1;rounded=0;labelBackgroundColor=none;labelBorderColor=none;fillColor=none;strokeColor=#FFFFFF;fontColor=#FFFFFF;" vertex="1" parent="WIyWlLk6GJQsqaUBKTNV-1">
          <mxGeometry x="120" y="180" width="120" height="80" as="geometry" />
        </mxCell>
        <mxCell id="-IWh4WuzgYLWiWa0NZZR-1" value="LED0 Blinkt&lt;br&gt;LED9 Aus" style="ellipse;whiteSpace=wrap;html=1;rounded=0;fontColor=#FFFFFF;labelBackgroundColor=none;strokeColor=#FFFFFF;fillColor=none;" vertex="1" parent="WIyWlLk6GJQsqaUBKTNV-1">
          <mxGeometry x="581" y="180" width="120" height="80" as="geometry" />
        </mxCell>
        <mxCell id="-IWh4WuzgYLWiWa0NZZR-2" value="LED9 An&lt;br&gt;LED0 Aus" style="ellipse;whiteSpace=wrap;html=1;rounded=0;fontColor=#FFFFFF;strokeColor=#FFFFFF;fillColor=none;" vertex="1" parent="WIyWlLk6GJQsqaUBKTNV-1">
          <mxGeometry x="120" y="390" width="120" height="80" as="geometry" />
        </mxCell>
        <mxCell id="-IWh4WuzgYLWiWa0NZZR-3" value="LED9 Blinkt&lt;br&gt;LED0 Aus" style="ellipse;whiteSpace=wrap;html=1;rounded=0;fillColor=none;strokeColor=#FFFFFF;fontColor=#FFFFFF;" vertex="1" parent="WIyWlLk6GJQsqaUBKTNV-1">
          <mxGeometry x="580" y="390" width="120" height="80" as="geometry" />
        </mxCell>
        <mxCell id="-IWh4WuzgYLWiWa0NZZR-4" value="SW1 Gedrückt" style="endArrow=classic;startArrow=classic;html=1;rounded=0;entryX=0;entryY=0.5;entryDx=0;entryDy=0;exitX=1;exitY=0.5;exitDx=0;exitDy=0;strokeColor=#FFFFFF;labelBackgroundColor=#000000;fontColor=#FFFFFF;" edge="1" parent="WIyWlLk6GJQsqaUBKTNV-1" source="-IWh4WuzgYLWiWa0NZZR-0" target="-IWh4WuzgYLWiWa0NZZR-1">
          <mxGeometry width="50" height="50" relative="1" as="geometry">
            <mxPoint x="390" y="400" as="sourcePoint" />
            <mxPoint x="440" y="350" as="targetPoint" />
            <Array as="points" />
          </mxGeometry>
        </mxCell>
        <mxCell id="-IWh4WuzgYLWiWa0NZZR-7" value="SW2 Gedrückt" style="endArrow=classic;startArrow=classic;html=1;rounded=0;exitX=0.95;exitY=0.488;exitDx=0;exitDy=0;exitPerimeter=0;strokeColor=#FFFFFF;labelBackgroundColor=#000000;fontColor=#FFFFFF;" edge="1" parent="WIyWlLk6GJQsqaUBKTNV-1" source="-IWh4WuzgYLWiWa0NZZR-2">
          <mxGeometry width="50" height="50" relative="1" as="geometry">
            <mxPoint x="390" y="400" as="sourcePoint" />
            <mxPoint x="580" y="429" as="targetPoint" />
          </mxGeometry>
        </mxCell>
        <mxCell id="-IWh4WuzgYLWiWa0NZZR-9" value="SW1 gedrückt" style="endArrow=classic;html=1;rounded=0;exitX=0;exitY=0;exitDx=0;exitDy=0;entryX=0;entryY=1;entryDx=0;entryDy=0;fontColor=#FFFFFF;labelBackgroundColor=#000000;strokeColor=#FFFFFF;" edge="1" parent="WIyWlLk6GJQsqaUBKTNV-1" source="-IWh4WuzgYLWiWa0NZZR-2" target="-IWh4WuzgYLWiWa0NZZR-0">
          <mxGeometry width="50" height="50" relative="1" as="geometry">
            <mxPoint x="157.07999999999996" y="390" as="sourcePoint" />
            <mxPoint x="150.00000000000003" y="252" as="targetPoint" />
          </mxGeometry>
        </mxCell>
        <mxCell id="-IWh4WuzgYLWiWa0NZZR-12" value="SW2 gedrückt" style="endArrow=classic;html=1;rounded=0;exitX=1;exitY=1;exitDx=0;exitDy=0;entryX=1;entryY=0;entryDx=0;entryDy=0;strokeColor=#FFFFFF;labelBackgroundColor=#000000;fontColor=#FFFFFF;" edge="1" parent="WIyWlLk6GJQsqaUBKTNV-1" source="-IWh4WuzgYLWiWa0NZZR-0" target="-IWh4WuzgYLWiWa0NZZR-2">
          <mxGeometry width="50" height="50" relative="1" as="geometry">
            <mxPoint x="390" y="400" as="sourcePoint" />
            <mxPoint x="440" y="350" as="targetPoint" />
          </mxGeometry>
        </mxCell>
        <mxCell id="-IWh4WuzgYLWiWa0NZZR-13" value="SW2 Gedrückt" style="endArrow=classic;html=1;rounded=0;exitX=0;exitY=1;exitDx=0;exitDy=0;entryX=0;entryY=0;entryDx=0;entryDy=0;labelBackgroundColor=#000000;fontColor=#FFFFFF;strokeColor=#FFFFFF;" edge="1" parent="WIyWlLk6GJQsqaUBKTNV-1" source="-IWh4WuzgYLWiWa0NZZR-1" target="-IWh4WuzgYLWiWa0NZZR-3">
          <mxGeometry width="50" height="50" relative="1" as="geometry">
            <mxPoint x="390" y="400" as="sourcePoint" />
            <mxPoint x="440" y="350" as="targetPoint" />
          </mxGeometry>
        </mxCell>
        <mxCell id="-IWh4WuzgYLWiWa0NZZR-14" value="SW1 Gedrückt" style="endArrow=classic;html=1;rounded=0;entryX=1;entryY=1;entryDx=0;entryDy=0;exitX=1;exitY=0;exitDx=0;exitDy=0;strokeColor=#FFFFFF;labelBackgroundColor=#000000;fontColor=#FFFFFF;" edge="1" parent="WIyWlLk6GJQsqaUBKTNV-1" source="-IWh4WuzgYLWiWa0NZZR-3" target="-IWh4WuzgYLWiWa0NZZR-1">
          <mxGeometry width="50" height="50" relative="1" as="geometry">
            <mxPoint x="390" y="400" as="sourcePoint" />
            <mxPoint x="440" y="350" as="targetPoint" />
          </mxGeometry>
        </mxCell>
      </root>
    </mxGraphModel>
  </diagram>
</mxfile>
